HIERARCHY
ROOT pelvis
{
  OFFSET 0 0 0
  CHANNELS 6 Xposition Yposition Zposition Zrotation Xrotation Yrotation
  JOINT pelvis_right_femur
  {
    OFFSET -11.43119 -3.542788 0.2090856
    CHANNELS 3 Zrotation Xrotation Yrotation
    JOINT right_femur_tibia
    {
      OFFSET -1.028693 -40.73281 5
      CHANNELS 3 Zrotation Xrotation Yrotation
      JOINT right_tibia_foot
      {
        OFFSET -0.5013517 -42.05707 -5
        CHANNELS 3 Zrotation Xrotation Yrotation
        End Site
        {
          OFFSET 0 -5 10
        }
      }
    }
  }
  JOINT pelvis_left_femur
  {
    OFFSET 11.43119 -3.542788 0.2090856
    CHANNELS 3 Zrotation Xrotation Yrotation
    JOINT left_femur_tibia
    {
      OFFSET 1.028693 -40.73281 5
      CHANNELS 3 Zrotation Xrotation Yrotation
      JOINT left_tibia_foot
      {
        OFFSET 0.3200228 -42.98253 -5
        CHANNELS 3 Zrotation Xrotation Yrotation
        End Site
        {
          OFFSET 0 -5 10
        }
      }
    }
  }
  JOINT pelvis_spine1
  {
    OFFSET 0 8.64413 -3.209807
    CHANNELS 3 Zrotation Xrotation Yrotation
    JOINT spine1
    {
      OFFSET 0 29.53957 -1.762685
      CHANNELS 3 Zrotation Xrotation Yrotation
      JOINT spine2
      {
        OFFSET 0 16.36153 -0.1422377
        CHANNELS 3 Zrotation Xrotation Yrotation
        JOINT neck
        {
          OFFSET 0 11.60093 5
          CHANNELS 3 Zrotation Xrotation Yrotation
          End Site
          {
            OFFSET 0 20 0
          }
        }
      }
      JOINT right_manubrium
      {
        OFFSET -4.671311 15.89868 4
        CHANNELS 3 Zrotation Xrotation Yrotation
        JOINT right_clavicle
        {
          OFFSET -13.601 1.573642 -2.74176
          CHANNELS 3 Zrotation Xrotation Yrotation
          JOINT right_humerus
          {
            OFFSET -0.06331682 -27.72702 2.252146
            CHANNELS 3 Zrotation Xrotation Yrotation
            JOINT right_radius
            {
              OFFSET -0.5696302 -23.92083 0.4042105
              CHANNELS 3 Zrotation Xrotation Yrotation
              End Site
              {
                OFFSET 0 -15 0
              }
            }
          }
        }
      }
      JOINT left_manubrium
      {
        OFFSET 4.671311 15.89868 4
        CHANNELS 3 Zrotation Xrotation Yrotation
        JOINT left_clavicle
        {
          OFFSET 13.601 1.573642 -2.74176
          CHANNELS 3 Zrotation Xrotation Yrotation
          JOINT left_humerus
          {
            OFFSET 0.000209614 -29.01858 1.101395
            CHANNELS 3 Zrotation Xrotation Yrotation
            JOINT left_radius
            {
              OFFSET -0.2288314 -24.59216 1.790347
              CHANNELS 3 Zrotation Xrotation Yrotation
              End Site
              {
                OFFSET 0 -15 0
              }
            }
          }
        }
      }
    }
  }
}
MOTION
Frames: 13
Frame Time: 0.0416666666667
0 48.26591 0 -3.578443 -19.73679 -1.165373 -54.38109 -60.8658 -53.95968 -180 85.50345 -180 4.885473 5.801083 -0.6559809 68.8757 -51.91916 63.62109 -180 79.74982 -180 -5.125941 2.927689 -18.64028 -1.271471 20.07194 2.585911 8.179108 13.74682 -9.751204 -18.58085 8.185653 25.02662 0.5548949 -26.34415 22.05024 21.17319 -5.027855 22.35837 -58.94137 -32.12127 14.23121 0 -76.39889 0 18.94548 11.7776 41.15228 -28.57041 -27.5585 -6.826121 54.33308 -23.48356 -30.59999 0 -76.22766 0 -13.30448 6.055567 -26.3856
0.06144025 48.29562 -0.002971009 -3.640163 -19.92028 -1.215402 -53.92625 -60.77524 -53.43815 -180 85.58093 -180 4.880912 5.826809 -0.6930708 68.63409 -51.80466 63.33451 -180 79.73648 -180 -5.123962 2.877539 -18.61318 -1.191261 20.07967 2.485575 7.863664 13.83776 -9.70641 -18.80592 7.971276 25.77924 0.3391464 -26.70899 23.07525 21.24523 -5.075778 22.46658 -58.93725 -32.12031 14.30753 0 -76.01433 0 18.97175 11.75983 41.1327 -28.85042 -27.68628 -6.801282 54.48842 -22.1727 -28.84534 0 -76.77625 0 -12.0251 3.496909 -24.44364
0.1384977 48.3262 -0.009844984 -3.602914 -20.1304 -1.347578 -53.50581 -60.76546 -52.8342 -180 85.63854 -180 4.863466 5.856379 -0.7207153 68.1774 -51.60463 62.9282 -180 79.7553 -180 -5.142678 2.812527 -18.56623 -1.221466 20.14011 2.443713 7.462901 14.02881 -9.533176 -18.64269 7.893081 26.11279 0.3155024 -27.1597 23.72786 21.47922 -5.170514 22.42801 -58.94309 -32.1721 14.34156 0 -75.72773 0 18.9821 11.7114 41.1137 -29.2602 -28.28677 -6.164484 54.75186 -20.29406 -25.89446 0 -77.92667 0 -10.10242 0.55201 -22.12831
0.1450201 48.43712 -0.0256204 -3.391217 -20.34385 -1.507847 -53.07221 -60.785 -52.16448 -180 85.70862 -180 4.840226 5.873076 -0.766761 67.50164 -51.31867 62.38794 -180 79.85726 -180 -5.151787 2.771367 -18.52357 -1.477188 20.27569 2.599423 6.963108 14.30391 -9.222504 -18.15494 7.947616 26.10212 0.4785598 -27.65375 24.06311 21.89589 -5.255837 22.18174 -58.87599 -32.19052 14.33933 0 -75.61868 0 18.96561 11.62658 41.09921 -29.80503 -29.60795 -5.049003 55.18342 -18.01213 -21.71213 0 -78.90453 0 -7.560418 -2.510762 -19.30937
0.144021 48.45366 -0.04022958 -3.234274 -20.5077 -1.555638 -52.91158 -60.78607 -51.80321 -180 85.70364 -180 4.827875 5.856722 -0.7998222 67.01474 -51.20547 62.00056 -180 79.92988 -180 -5.166488 2.747929 -18.48294 -1.611498 20.44121 2.780269 6.465843 14.47244 -8.852397 -17.42301 8.137106 25.84066 0.8343943 -28.04687 24.13253 22.32519 -5.389384 21.7472 -58.83538 -32.16882 14.25385 0 -75.7113 0 18.92673 11.49454 41.0867 -30.23665 -31.64567 -3.724347 55.82262 -15.57124 -16.63579 0 -78.68212 0 -4.575592 -5.275438 -15.92416
0.09390093 48.47762 -0.04179797 -3.109971 -20.55984 -1.464232 -52.92049 -60.74191 -51.72126 -180 85.67756 -180 4.847947 5.816601 -0.8460768 66.74927 -51.22677 61.77314 -180 80.00547 -180 -5.168037 2.762076 -18.45051 -1.65739 20.55785 3.029624 6.036263 14.52071 -8.486107 -16.64264 8.406876 25.44956 1.304978 -28.30185 23.99301 22.641 -5.533848 21.18471 -58.84113 -32.03309 14.11484 0 -75.98228 0 18.88261 11.3236 41.08272 -30.37142 -34.26584 -2.557416 56.6701 -13.26293 -11.21111 0 -76.53358 0 -1.473172 -7.392776 -12.09312
0.02333686 48.49419 -0.02799938 -3.011905 -20.51716 -1.245711 -53.15698 -60.65532 -51.93828 -180 85.60855 -180 4.884462 5.740077 -0.9202552 66.62739 -51.41179 61.68384 -180 80.08127 -180 -5.155149 2.814723 -18.45863 -1.6665 20.64631 3.343953 5.813126 14.44536 -8.190715 -15.90562 8.671263 25.01414 1.837138 -28.4399 23.70481 22.78635 -5.66572 20.59668 -58.9539 -31.7852 13.94219 0 -76.39579 0 18.85851 11.10737 41.07993 -30.03171 -37.2101 -1.886201 57.84192 -11.36295 -5.987091 0 -72.24511 0 1.315319 -8.685587 -8.059272
-0.05132633 48.49098 -0.0208474 -2.972446 -20.39595 -0.9197369 -53.52268 -60.54428 -52.33718 -180 85.52126 -180 4.949814 5.657806 -1.022044 66.70398 -51.74755 61.75768 -180 80.13031 -180 -5.132785 2.894729 -18.48966 -1.695427 20.69882 3.611954 5.84965 14.30389 -8.047093 -15.25509 8.843104 24.57663 2.384981 -28.5125 23.30549 22.73587 -5.79137 20.11506 -59.15104 -31.46478 13.76209 0 -76.85473 0 18.85396 10.86005 41.07919 -29.13117 -40.04778 -1.913656 59.32779 -10.06185 -1.65384 0 -66.1707 0 3.285069 -9.221917 -4.133868
-0.09420924 48.4633 -0.00723179 -3.090728 -20.22012 -0.5559294 -53.84234 -60.43313 -52.77992 -180 85.42818 -180 5.033679 5.580778 -1.15193 67.11086 -52.18563 62.04411 -180 80.10115 -180 -5.103896 2.98712 -18.52537 -1.718979 20.71919 3.71862 6.191217 14.12454 -8.073468 -14.64077 8.853898 24.06521 2.940813 -28.55306 22.72158 22.51329 -5.903694 19.81572 -59.41347 -31.11439 13.60638 0 -77.32142 0 18.88294 10.5914 41.07595 -27.6166 -42.40799 -2.506567 61.08737 -9.33966 1.426191 0 -58.85157 0 4.053095 -9.169892 -0.5869988
-0.07062249 48.34509 -0.01405137 -3.367312 -20.0222 -0.1263567 -54.17225 -60.3311 -53.25008 -180 85.35723 -180 5.133397 5.525677 -1.294821 67.77615 -52.76778 62.53648 -180 79.99402 -180 -5.090989 3.058867 -18.55409 -1.648851 20.72529 3.619089 6.732368 13.90903 -8.241994 -13.96515 8.784692 23.26245 3.525637 -28.56204 21.72374 22.20588 -6.037146 19.71352 -59.71361 -30.788 13.43714 0 -77.74918 0 18.92373 10.30186 41.07191 -25.69796 -44.2893 -3.302615 62.87439 -9.049244 3.414562 0 -51.13416 0 3.772779 -8.886845 2.501012
-0.01525138 48.33511 0.007022664 -3.612357 -19.80313 0.1283446 -54.24948 -60.3074 -53.45598 -180 85.35395 -180 5.225827 5.486089 -1.46271 68.34608 -53.1571 62.95759 -180 79.90421 -180 -5.071845 3.114799 -18.59397 -1.799234 20.65253 3.514961 7.40499 13.77129 -8.545797 -13.14936 8.731043 21.96594 4.156251 -28.61168 20.10805 22.02115 -6.076371 19.79763 -59.94211 -30.47474 13.32807 0 -78.0479 0 18.97471 10.02244 41.06184 -23.73052 -45.82079 -4.105106 64.51554 -9.043799 4.631831 0 -43.6922 0 2.716835 -8.643294 5.118379
0.07986305 48.34854 0.04014371 -3.872027 -19.59228 0.2524827 -54.1957 -60.3351 -53.51602 -180 85.41585 -180 5.301962 5.459744 -1.596101 68.83074 -53.43614 63.32874 -180 79.82139 -180 -5.068984 3.130909 -18.61643 -2.108722 20.56613 3.323254 8.144309 13.69762 -8.959309 -12.02526 8.701258 20.20008 4.913346 -28.78597 18.01158 21.94121 -6.095372 20.07119 -60.06181 -30.26931 13.28037 0 -78.20333 0 19.02515 9.758755 41.04268 -21.88394 -46.98789 -4.776205 65.92288 -9.133014 5.272328 0 -36.88115 0 1.055539 -8.542091 7.328699
0.1893616 48.36573 0.07094282 -4.168612 -19.38768 0.2724806 -54.03258 -60.40144 -53.49341 -180 85.50989 -180 5.368437 5.445165 -1.695047 69.34526 -53.62905 63.71112 -180 79.73094 -180 -5.074489 3.113307 -18.63754 -2.481847 20.4892 3.077495 8.83703 13.65563 -9.408802 -10.62807 8.706054 18.2572 5.839464 -29.06871 15.8135 21.92879 -6.103267 20.40213 -60.08858 -30.17387 13.30219 0 -78.24758 0 19.07549 9.518401 41.01988 -20.37131 -47.92742 -5.309729 67.09287 -9.245245 5.605918 0 -31.16345 0 -0.8653734 -8.700929 9.163349
